<?xml version="1.0" encoding="UTF-8" standalone="no"?>
<!DOCTYPE svg PUBLIC "-//W3C//DTD SVG 1.0//EN" "http://www.w3.org/TR/2001/REC-SVG-20010904/DTD/svg10.dtd">
<!-- Generated by Microsoft Visio 11.0, SVG Export, v1.0 atprocessess.svg Page-1 -->
<svg xmlns="http://www.w3.org/2000/svg" xmlns:v="http://schemas.microsoft.com/visio/2003/SVGExtensions/" width="8.26772in"
		height="11.6929in" viewBox="0 0 595.276 841.89" xml:space="preserve" color-interpolation-filters="sRGB" class="st12">
	<v:documentProperties v:langID="1033" v:viewMarkup="false"/>

	<style type="text/css">
	<![CDATA[
		.st1 {fill:#ffffff;stroke:#000000;stroke-linecap:round;stroke-linejoin:round;stroke-width:0.24}
		.st2 {fill:#000000;font-family:Arial;font-size:0.666664em}
		.st3 {marker-end:url(#mrkr4-18);stroke:#000000;stroke-linecap:round;stroke-linejoin:round;stroke-width:0.239976}
		.st4 {fill:#000000;fill-opacity:1;stroke:#000000;stroke-opacity:1;stroke-width:0.086948582161584}
		.st5 {fill:#ffffff;stroke:none;stroke-linecap:butt;stroke-width:7.2}
		.st6 {marker-end:url(#mrkr4-26);stroke:#000000;stroke-linecap:round;stroke-linejoin:round;stroke-width:0.239976}
		.st7 {marker-end:url(#mrkr4-34);stroke:#000000;stroke-linecap:round;stroke-linejoin:round;stroke-width:0.239976}
		.st8 {fill:none;stroke:none;stroke-linecap:round;stroke-linejoin:round;stroke-width:0.72}
		.st9 {marker-end:url(#mrkr4-34);stroke:#000000;stroke-width:0.239976}
		.st10 {font-size:1em}
		.st11 {fill:#000000;font-family:Arial;font-size:0.666664em;font-weight:bold}
		.st12 {fill:none;fill-rule:evenodd;font-size:12;overflow:visible;stroke-linecap:square;stroke-miterlimit:3}
	]]>
	</style>

	<defs id="Markers">
		<g id="lend4">
			<path d="M 2 1 L -0 0 L 2 -1 L 2 1 " style="stroke:none"/>
		</g>
		<marker id="mrkr4-18" class="st4" v:arrowType="4" v:arrowSize="2" v:setback="21.502" refX="-21.50195019502" orient="auto"
				markerUnits="strokeWidth">
			<use xlink:href="#lend4" transform="scale(-11.501050105011,-11.501050105011) "/>
		</marker>
		<marker id="mrkr4-26" class="st4" v:arrowType="4" v:arrowSize="2" v:setback="23.0021" refX="-23.002100210021" orient="auto"
				markerUnits="strokeWidth">
			<use xlink:href="#lend4" transform="scale(-11.501050105011,-11.501050105011) "/>
		</marker>
		<marker id="mrkr4-34" class="st4" v:arrowType="4" v:arrowSize="2" v:setback="0" refX="-0" orient="auto"
				markerUnits="strokeWidth">
			<use xlink:href="#lend4" transform="scale(-11.501050105011,-11.501050105011) "/>
		</marker>
	</defs>
	<g v:mID="0" v:index="1" v:groupContext="foregroundPage">
		<title>Page-1</title>
		<v:pageProperties v:drawingScale="0.0393701" v:pageScale="0.0393701" v:drawingUnits="24" v:shadowOffsetX="8.50394"
				v:shadowOffsetY="-8.50394"/>
		<v:layer v:name="Connector" v:index="0"/>
		<v:layer v:name="Flowchart" v:index="1"/>
		<g id="shape1-1" v:mID="1" v:groupContext="shape" v:layerMember="0;1" transform="translate(111.534,-651.233)">
			<title>On-page reference</title>
			<desc>RECEIVE START</desc>
			<v:userDefs>
				<v:ud v:nameU="visVersion" v:val="VT0(12):26"/>
			</v:userDefs>
			<v:textBlock v:margins="rect(2,2,2,2)" v:tabSpace="42.5197"/>
			<v:textRect cx="42.2923" cy="799.597" width="84.59" height="84.5847"/>
			<path d="M0 799.6 A42.2923 42.2923 0 1 1 84.58 799.6 A42.2923 42.2923 0 0 1 0 799.6 Z" class="st1"/>
			<text x="10.51" y="802" class="st2" v:langID="1053"><v:paragraph v:horizAlign="1"/><v:tabList/>RECEIVE START</text>		</g>
		<g id="shape2-4" v:mID="2" v:groupContext="shape" v:layerMember="0;1" transform="translate(110.765,-466.685)">
			<title>On-page reference.2</title>
			<desc>RECEIVE WAIT HIGH</desc>
			<v:userDefs>
				<v:ud v:nameU="visVersion" v:val="VT0(12):26"/>
			</v:userDefs>
			<v:textBlock v:margins="rect(2,2,2,2)" v:tabSpace="42.5197"/>
			<v:textRect cx="43.0613" cy="798.828" width="86.13" height="86.1226"/>
			<path d="M0 798.83 A43.0613 43.0613 0 0 1 86.12 798.83 A43.0613 43.0613 0 1 1 0 798.83 Z" class="st1"/>
			<text x="3.28" y="801.23" class="st2" v:langID="1053"><v:paragraph v:horizAlign="1"/><v:tabList/>RECEIVE WAIT HIGH</text>		</g>
		<g id="shape3-7" v:mID="3" v:groupContext="shape" v:layerMember="0;1" transform="translate(109.227,-362.107)">
			<title>On-page reference.3</title>
			<desc>RECEIVE WAIT LOW</desc>
			<v:userDefs>
				<v:ud v:nameU="visVersion" v:val="VT0(12):26"/>
			</v:userDefs>
			<v:textBlock v:margins="rect(2,2,2,2)" v:tabSpace="42.5197"/>
			<v:textRect cx="44.5992" cy="797.291" width="89.2" height="89.1984"/>
			<path d="M0 797.29 A44.5992 44.5992 0 0 1 89.2 797.29 A44.5992 44.5992 0 1 1 0 797.29 Z" class="st1"/>
			<text x="5.71" y="799.69" class="st2" v:langID="1053"><v:paragraph v:horizAlign="1"/><v:tabList/>RECEIVE WAIT LOW</text>		</g>
		<g id="shape4-10" v:mID="4" v:groupContext="shape" v:layerMember="0;1" transform="translate(110.765,-226.772)">
			<title>On-page reference.4</title>
			<desc>RECEIVE DONE</desc>
			<v:userDefs>
				<v:ud v:nameU="visVersion" v:val="VT0(12):26"/>
			</v:userDefs>
			<v:textBlock v:margins="rect(2,2,2,2)" v:tabSpace="42.5197"/>
			<v:textRect cx="43.0613" cy="798.828" width="86.13" height="86.1226"/>
			<path d="M0 798.83 A43.0613 43.0613 0 0 1 86.12 798.83 A43.0613 43.0613 0 1 1 0 798.83 Z" class="st1"/>
			<text x="12.83" y="796.43" class="st2" v:langID="1053"><v:paragraph v:horizAlign="1"/><v:tabList/>RECEIVE DONE<v:newlineChar/></text>		</g>
		<g id="shape5-13" v:mID="5" v:groupContext="shape" v:layerMember="0"
				transform="translate(-730.349,144.842) rotate(-89.7603) scale(-1,1)">
			<title>Line-curve connector</title>
			<desc>Message not available</desc>
			<v:userDefs>
				<v:ud v:nameU="AntiScale" v:val="VT0(1):26"/>
				<v:ud v:nameU="visVersion" v:val="VT0(12):26"/>
			</v:userDefs>
			<v:textBlock v:margins="rect(4,4,4,4)" v:tabSpace="42.5197"/>
			<v:textRect cx="88.4834" cy="830.184" width="89.84" height="17.6036" transform="rotate(89.7603)"/>
			<path d="M0 841.89 L4.36 840.72 L8.75 839.62 L13.15 838.57 L17.56 837.59 L22 836.66 L26.45 835.8 L30.93 835 L35.42 834.26
						 L39.92 833.59 L44.45 832.97 L48.99 832.42 L53.55 831.92 L58.13 831.49 L62.73 831.12 L67.34 830.81 L71.97
						 830.57 L76.62 830.38 L81.29 830.26 L85.98 830.19 L90.68 830.19 L95.4 830.25 L100.14 830.37 L104.9 830.55
						 L109.68 830.8 L114.47 831.1 L119.28 831.47 L124.11 831.89 L128.95 832.38 L133.82 832.93 L138.7 833.54 L143.6
						 834.22 L148.52 834.95 L153.46 835.75 L158.41 836.6 L163.38 837.52 L168.37 838.5 L173.38 839.54 L178.4 840.65
						 L178.75 840.73" class="st3"/>
			<rect v:rectContext="textBkgnd" x="-869.609" y="87.1564" width="79.605" height="9.59985" transform="rotate(-89.7603)"
					class="st5"/>
			<text x="790" y="94.36" transform="rotate(-89.7603) scale(-1,1)" class="st2" v:langID="1053"><v:paragraph
						v:horizAlign="1"/><v:tabList/>Message not available</text>		</g>
		<g id="shape7-21" v:mID="7" v:groupContext="shape" v:layerMember="0"
				transform="translate(-688.064,479.783) rotate(-90) scale(-1,1)">
			<title>Line-curve connector.7</title>
			<desc>timeout</desc>
			<v:userDefs>
				<v:ud v:nameU="AntiScale" v:val="VT0(1):26"/>
				<v:ud v:nameU="visVersion" v:val="VT0(12):26"/>
			</v:userDefs>
			<v:textBlock v:margins="rect(4,4,4,4)" v:tabSpace="42.5197"/>
			<v:textRect cx="25.2066" cy="841.89" width="40" height="17.6036" transform="rotate(90)"/>
			<path d="M0 841.89 L4.54 841.89 L9.04 841.89 L13.5 841.89 L17.93 841.89 L22.31 841.89 L26.66 841.89 L30.98 841.89 L35.25
						 841.89 L39.49 841.89 L43.69 841.89" class="st6"/>
			<rect v:rectContext="textBkgnd" x="-855.007" y="20.4069" width="26.234" height="9.59985" transform="rotate(-90)"
					class="st5"/>
			<text x="828.77" y="27.61" transform="rotate(-90) scale(-1,1)" class="st2" v:langID="1053"><v:paragraph
						v:horizAlign="1"/><v:tabList/>timeout</text>		</g>
		<g id="shape8-29" v:mID="8" v:groupContext="shape" v:layerMember="0"
				transform="translate(951.023,447.748) rotate(-89.1449) scale(1,-1)">
			<title>Line-curve connector.8</title>
			<desc>Message not available</desc>
			<v:userDefs>
				<v:ud v:nameU="AntiScale" v:val="VT0(1):26"/>
				<v:ud v:nameU="visVersion" v:val="VT0(12):26"/>
			</v:userDefs>
			<v:textBlock v:margins="rect(4,4,4,4)" v:tabSpace="42.5197"/>
			<v:textRect cx="51.4566" cy="893.627" width="89.84" height="17.6036" transform="rotate(89.1449)"/>
			<path d="M0 841.89 L1.35 844.58 L2.7 847.19 L4.06 849.74 L5.41 852.21 L6.76 854.61 L8.12 856.94 L9.47 859.2 L10.82 861.38
						 L12.17 863.49 L13.53 865.54 L14.88 867.51 L16.23 869.41 L17.59 871.23 L18.94 872.99 L20.3 874.67 L21.65
						 876.29 L23 877.83 L24.36 879.3 L25.71 880.69 L27.07 882.02 L28.42 883.27 L29.77 884.45 L31.13 885.57 L32.48
						 886.6 L33.84 887.57 L35.19 888.47 L36.55 889.29 L37.9 890.04 L39.26 890.72 L40.61 891.33 L41.97 891.87 L43.32
						 892.34 L44.68 892.73 L46.03 893.05 L47.39 893.3 L48.74 893.48 L50.1 893.59 L51.46 893.63 L52.81 893.59 L54.17
						 893.48 L55.52 893.3 L56.88 893.05 L58.24 892.73 L59.59 892.34 L60.95 891.87 L62.31 891.33 L63.66 890.72
						 L65.02 890.04 L66.38 889.29 L67.73 888.47 L69.09 887.57 L70.45 886.6 L71.81 885.57 L73.16 884.45 L74.52
						 883.27 L75.88 882.02 L77.24 880.69 L78.59 879.3 L79.95 877.83 L81.31 876.29 L82.67 874.67 L84.03 872.99
						 L85.38 871.23 L86.74 869.41 L88.1 867.51 L89.46 865.54 L90.82 863.49 L92.18 861.38 L93.54 859.2 L94.9 856.94
						 L96.25 854.61 L97.61 852.21 L98.97 849.74 L100.33 847.19 L101.69 844.58 L103.05 841.89" class="st7"/>
			<rect v:rectContext="textBkgnd" x="-932.562" y="59.987" width="79.605" height="9.59985" transform="rotate(-89.1449)"
					class="st5"/>
			<text x="-932.56" y="-62.39" transform="rotate(-89.1449) scale(1,-1)" class="st2" v:langID="1053"><v:paragraph
						v:horizAlign="1"/><v:tabList/>Message not available</text>		</g>
		<g id="shape9-37" v:mID="9" v:groupContext="shape" v:layerMember="0"
				transform="translate(-644.995,335.666) rotate(-90.2397)">
			<title>Line-curve connector.9</title>
			<desc>timeout</desc>
			<v:userDefs>
				<v:ud v:nameU="AntiScale" v:val="VT0(1):26"/>
				<v:ud v:nameU="visVersion" v:val="VT0(12):26"/>
			</v:userDefs>
			<v:textBlock v:margins="rect(4,4,4,4)" v:tabSpace="42.5197"/>
			<v:textRect cx="95.2977" cy="853.596" width="40" height="17.6036" transform="rotate(90.2397)"/>
			<path d="M0 841.89 L5.02 843.05 L10.03 844.16 L15.02 845.2 L19.99 846.18 L24.94 847.1 L29.88 847.96 L34.79 848.75 L39.69
						 849.49 L44.58 850.17 L49.44 850.78 L54.29 851.34 L59.11 851.83 L63.93 852.26 L68.72 852.64 L73.5 852.95
						 L78.25 853.2 L82.99 853.39 L87.72 853.52 L92.42 853.58 L97.11 853.59 L101.78 853.54 L106.43 853.42 L111.06
						 853.25 L115.68 853.01 L120.28 852.71 L124.86 852.35 L129.42 851.94 L133.97 851.46 L138.49 850.91 L143 850.31
						 L147.5 849.65 L151.97 848.93 L156.43 848.14 L160.87 847.3 L165.29 846.39 L169.69 845.42 L174.08 844.4 L178.45
						 843.31 L178.79 843.22" class="st3"/>
			<rect v:rectContext="textBkgnd" x="840.073" y="-103.668" width="26.234" height="9.59985" transform="rotate(90.2397)"
					class="st5"/>
			<text x="840.07" y="-96.47" transform="rotate(90.2397)" class="st2" v:langID="1053"><v:paragraph v:horizAlign="1"/><v:tabList/>timeout</text>		</g>
		<g id="shape11-44" v:mID="11" v:groupContext="shape" transform="translate(29.3701,-672.703)">
			<title>Sheet.11</title>
			<desc>Reset</desc>
			<v:textBlock v:margins="rect(2,2,2,2)" v:tabSpace="42.5197"/>
			<v:textRect cx="37.6822" cy="827.271" width="75.37" height="29.2372"/>
			<rect x="0" y="812.653" width="75.3644" height="29.2372" class="st8"/>
			<text x="27.23" y="829.67" class="st2" v:langID="1053"><v:paragraph v:horizAlign="1"/><v:tabList/>Reset</text>		</g>
		<g id="shape10-47" v:mID="10" v:groupContext="shape" v:layerMember="0" transform="translate(70.7187,-686.439)">
			<title>Dynamic connector</title>
			<v:userDefs>
				<v:ud v:nameU="visVersion" v:val="VT0(12):26"/>
			</v:userDefs>
			<path d="M0 834.8 L35.3 834.8" class="st6"/>
		</g>
		<g id="shape12-52" v:mID="12" v:groupContext="shape" v:layerMember="0"
				transform="translate(-645.001,573.585) rotate(-90.104)">
			<title>Line-curve connector.12</title>
			<v:userDefs>
				<v:ud v:nameU="AntiScale" v:val="VT0(1):26"/>
				<v:ud v:nameU="visVersion" v:val="VT0(12):26"/>
			</v:userDefs>
			<path d="M0 841.89 L3.54 845.57 L7.08 849.19 L10.64 852.73 L14.2 856.2 L17.78 859.59 L21.37 862.92 L24.97 866.17 L28.57
						 869.36 L32.19 872.47 L35.82 875.51 L39.46 878.48 L43.11 881.37 L46.77 884.2 L50.44 886.95 L54.13 889.64
						 L57.82 892.25 L61.52 894.79 L65.23 897.25 L68.96 899.65 L72.69 901.98 L76.44 904.23 L80.19 906.41 L83.96
						 908.52 L87.73 910.56 L91.52 912.53 L95.31 914.42 L99.12 916.25 L102.94 918 L106.77 919.68 L110.61 921.29
						 L114.45 922.83 L118.31 924.29 L122.18 925.69 L126.06 927.01 L129.96 928.26 L133.86 929.44 L137.77 930.55
						 L141.69 931.59 L145.62 932.55 L149.57 933.45 L153.52 934.27 L157.48 935.02 L161.46 935.7 L165.44 936.31
						 L169.44 936.85 L173.45 937.31 L177.46 937.7 L181.49 938.03 L185.53 938.28 L189.57 938.46 L193.63 938.56
						 L197.7 938.6 L201.78 938.56 L205.87 938.46 L209.97 938.28 L214.08 938.03 L218.2 937.7 L222.33 937.31 L226.48
						 936.85 L230.63 936.31 L234.79 935.7 L238.96 935.02 L243.15 934.27 L247.34 933.45 L251.55 932.55 L255.76
						 931.59 L259.99 930.55 L264.22 929.44 L268.47 928.26 L272.73 927.01 L277 925.69 L281.27 924.29 L285.56 922.83
						 L289.86 921.29 L294.17 919.68 L298.49 918 L302.82 916.25 L307.16 914.42 L311.51 912.53 L315.87 910.56 L320.25
						 908.52 L324.63 906.41 L329.02 904.23 L333.43 901.98 L337.84 899.65 L342.26 897.25 L346.7 894.79 L351.14
						 892.25 L355.6 889.64 L360.07 886.95 L364.54 884.2 L369.03 881.37 L373.53 878.48 L378.04 875.51 L382.55 872.47
						 L387.08 869.36 L391.62 866.17 L396.17 862.92 L400.73 859.59 L405.3 856.2 L409.89 852.73 L414.48 849.19 L419.08
						 845.57 L423.69 841.89" class="st7"/>
		</g>
		<g id="shape13-57" v:mID="13" v:groupContext="shape" v:layerMember="0" transform="translate(196.118,-693.525) scale(-1,1)">
			<title>Line-curve connector.13</title>
			<desc>Message available</desc>
			<v:userDefs>
				<v:ud v:nameU="AntiScale" v:val="VT0(1):26"/>
				<v:ud v:nameU="visVersion" v:val="VT0(12):26"/>
			</v:userDefs>
			<v:textBlock v:margins="rect(4,4,4,4)" v:tabSpace="42.5197"/>
			<v:textRect cx="42.2923" cy="761.811" width="76.49" height="17.6036"/>
			<path d="M0 841.89 L0.9 838.52 L1.8 835.22 L2.7 831.99 L3.6 828.84 L4.5 825.76 L5.4 822.75 L6.3 819.81 L7.2 816.95 L8.1
						 814.16 L9 811.44 L9.9 808.79 L10.8 806.22 L11.7 803.72 L12.6 801.29 L13.5 798.93 L14.4 796.65 L15.3 794.44
						 L16.2 792.3 L17.1 790.23 L18 788.24 L18.9 786.32 L19.8 784.47 L20.7 782.69 L21.6 780.99 L22.5 779.36 L23.4
						 777.8 L24.3 776.31 L25.2 774.9 L26.1 773.56 L27 772.29 L27.89 771.09 L28.79 769.97 L29.69 768.92 L30.59
						 767.94 L31.49 767.03 L32.39 766.2 L33.29 765.44 L34.19 764.75 L35.09 764.13 L35.99 763.59 L36.89 763.12
						 L37.79 762.72 L38.69 762.39 L39.59 762.14 L40.49 761.96 L41.39 761.85 L42.29 761.81 L43.19 761.85 L44.09
						 761.96 L44.99 762.14 L45.89 762.39 L46.79 762.72 L47.69 763.12 L48.59 763.59 L49.49 764.13 L50.39 764.75
						 L51.29 765.44 L52.19 766.2 L53.09 767.03 L53.99 767.94 L54.89 768.92 L55.79 769.97 L56.69 771.09 L57.59
						 772.29 L58.49 773.56 L59.39 774.9 L60.29 776.31 L61.19 777.8 L62.09 779.36 L62.99 780.99 L63.89 782.69 L64.79
						 784.47 L65.69 786.32 L66.59 788.24 L67.49 790.23 L68.39 792.3 L69.29 794.44 L70.19 796.65 L71.09 798.93
						 L71.99 801.29 L72.89 803.72 L73.79 806.22 L74.69 808.79 L75.59 811.44 L76.49 814.16 L77.39 816.95 L78.29
						 819.81 L79.19 822.75 L80.09 825.76 L80.99 828.84 L81.89 831.99 L82.79 835.22 L83.68 838.52 L84.58 841.89"
					class="st9"/>
			<rect v:rectContext="textBkgnd" x="9.16159" y="757.011" width="66.2616" height="9.59985" class="st5"/>
			<text x="-75.42" y="764.21" transform="scale(-1,1)" class="st2" v:langID="1053"><v:paragraph v:horizAlign="1"/><v:tabList/>Message available</text>		</g>
		<g id="shape14-64" v:mID="14" v:groupContext="shape" v:layerMember="0"
				transform="translate(1038.68,319.58) rotate(89.1449)">
			<title>Line-curve connector.14</title>
			<desc>Message available</desc>
			<v:userDefs>
				<v:ud v:nameU="AntiScale" v:val="VT0(1):26"/>
				<v:ud v:nameU="visVersion" v:val="VT0(12):26"/>
			</v:userDefs>
			<v:textBlock v:margins="rect(4,4,4,4)" v:tabSpace="42.5197"/>
			<v:textRect cx="43.9745" cy="785.795" width="76.49" height="17.6036" transform="rotate(-89.1449)"/>
			<path d="M0 841.89 L0.93 839.09 L1.86 836.35 L2.81 833.69 L3.77 831.1 L4.73 828.59 L5.71 826.14 L6.69 823.77 L7.69 821.47
						 L8.69 819.24 L9.71 817.08 L10.73 815 L11.76 812.98 L12.81 811.04 L13.86 809.17 L14.92 807.38 L15.99 805.65
						 L17.07 804 L18.17 802.41 L19.27 800.9 L20.38 799.47 L21.5 798.1 L22.63 796.81 L23.77 795.58 L24.92 794.43
						 L26.08 793.35 L27.25 792.35 L28.43 791.41 L29.61 790.55 L30.81 789.76 L32.02 789.04 L33.24 788.39 L34.46
						 787.82 L35.7 787.31 L36.95 786.88 L38.2 786.52 L39.47 786.24 L40.74 786.02 L42.03 785.88 L43.32 785.8 L44.63
						 785.8 L45.94 785.88 L47.27 786.02 L48.6 786.24 L49.94 786.52 L51.3 786.88 L52.66 787.31 L54.03 787.82 L55.41
						 788.39 L56.8 789.04 L58.2 789.76 L59.62 790.55 L61.04 791.41 L62.47 792.35 L63.91 793.35 L65.36 794.43 L66.82
						 795.58 L68.28 796.81 L69.76 798.1 L71.25 799.47 L72.75 800.9 L74.26 802.41 L75.77 804 L77.3 805.65 L78.84
						 807.38 L80.38 809.17 L81.94 811.04 L83.51 812.98 L85.08 815 L86.67 817.08 L88.26 819.24 L89.87 821.47 L91.48
						 823.77 L93.1 826.14 L94.74 828.59 L96.38 831.1 L98.03 833.69 L99.7 836.35 L101.37 839.09 L103.05 841.89"
					class="st7"/>
			<rect v:rectContext="textBkgnd" x="-818.182" y="50.8969" width="66.2616" height="9.59985" transform="rotate(-89.1449)"
					class="st5"/>
			<text x="-818.18" y="58.1" transform="rotate(-89.1449)" class="st2" v:langID="1053"><v:paragraph v:horizAlign="1"/><v:tabList/>Message available</text>		</g>
		<g id="shape6-71" v:mID="6" v:groupContext="shape" v:layerMember="0;1" transform="translate(405.354,-702.992)">
			<title>On-page reference.6</title>
			<desc>SEND START</desc>
			<v:userDefs>
				<v:ud v:nameU="visVersion" v:val="VT0(12):26"/>
			</v:userDefs>
			<v:textBlock v:margins="rect(2,2,2,2)" v:tabSpace="42.5197"/>
			<v:textRect cx="41.1024" cy="800.787" width="82.21" height="82.2047"/>
			<path d="M0 800.79 A41.1024 41.1024 0 1 1 82.2 800.79 A41.1024 41.1024 0 0 1 0 800.79 Z" class="st1"/>
			<text x="15.77" y="803.19" class="st2" v:langID="1053"><v:paragraph v:horizAlign="1"/><v:tabList/>SEND START</text>		</g>
		<g id="shape15-74" v:mID="15" v:groupContext="shape" v:layerMember="0;1" transform="translate(405.354,-583.11)">
			<title>On-page reference.15</title>
			<desc>SEND WAIT HIGH</desc>
			<v:userDefs>
				<v:ud v:nameU="visVersion" v:val="VT0(12):26"/>
			</v:userDefs>
			<v:textBlock v:margins="rect(2,2,2,2)" v:tabSpace="42.5197"/>
			<v:textRect cx="41.1024" cy="800.787" width="82.21" height="82.2047"/>
			<path d="M0 800.79 A41.1024 41.1024 0 1 1 82.2 800.79 A41.1024 41.1024 0 0 1 0 800.79 Z" class="st1"/>
			<text x="7.77" y="803.19" class="st2" v:langID="1053"><v:paragraph v:horizAlign="1"/><v:tabList/>SEND WAIT HIGH</text>		</g>
		<g id="shape16-77" v:mID="16" v:groupContext="shape" v:layerMember="0;1" transform="translate(405.354,-454.665)">
			<title>On-page reference.16</title>
			<desc>SEND</desc>
			<v:userDefs>
				<v:ud v:nameU="visVersion" v:val="VT0(12):26"/>
			</v:userDefs>
			<v:textBlock v:margins="rect(2,2,2,2)" v:tabSpace="42.5197"/>
			<v:textRect cx="41.1024" cy="800.787" width="82.21" height="82.2047"/>
			<path d="M0 800.79 A41.1024 41.1024 0 1 1 82.2 800.79 A41.1024 41.1024 0 0 1 0 800.79 Z" class="st1"/>
			<text x="29.99" y="803.19" class="st2" v:langID="1053"><v:paragraph v:horizAlign="1"/><v:tabList/>SEND</text>		</g>
		<g id="shape17-80" v:mID="17" v:groupContext="shape" v:layerMember="0;1" transform="translate(405.354,-223.465)">
			<title>On-page reference.17</title>
			<desc>SEND DONE</desc>
			<v:userDefs>
				<v:ud v:nameU="visVersion" v:val="VT0(12):26"/>
			</v:userDefs>
			<v:textBlock v:margins="rect(2,2,2,2)" v:tabSpace="42.5197"/>
			<v:textRect cx="41.1024" cy="800.787" width="82.21" height="82.2047"/>
			<path d="M0 800.79 A41.1024 41.1024 0 1 1 82.2 800.79 A41.1024 41.1024 0 0 1 0 800.79 Z" class="st1"/>
			<text x="17.32" y="803.19" class="st2" v:langID="1053"><v:paragraph v:horizAlign="1"/><v:tabList/>SEND DONE</text>		</g>
		<g id="shape18-83" v:mID="18" v:groupContext="shape" v:layerMember="0" transform="translate(439.37,-702.992)">
			<title>Dynamic connector.18</title>
			<v:userDefs>
				<v:ud v:nameU="visVersion" v:val="VT0(12):26"/>
			</v:userDefs>
			<path d="M7.09 841.89 L7.09 874.05" class="st6"/>
		</g>
		<g id="shape19-88" v:mID="19" v:groupContext="shape" v:layerMember="0" transform="translate(453.543,-583.11)">
			<title>Dynamic connector.19</title>
			<desc>UART tx module ready</desc>
			<v:userDefs>
				<v:ud v:nameU="visVersion" v:val="VT0(12):26"/>
			</v:userDefs>
			<v:textBlock v:margins="rect(4,4,4,4)" v:tabSpace="42.5197"/>
			<v:textRect cx="-7.08661" cy="865.01" width="91.15" height="17.6036"/>
			<path d="M-7.09 841.89 L-7.09 882.61" class="st6"/>
			<rect v:rectContext="textBkgnd" x="-47.5454" y="860.21" width="80.9176" height="9.59985" class="st5"/>
			<text x="-47.55" y="867.41" class="st2" v:langID="1053"><v:paragraph v:horizAlign="1"/><v:tabList/>UART tx module ready</text>		</g>
		<g id="shape20-95" v:mID="20" v:groupContext="shape" v:layerMember="0"
				transform="translate(-354.331,217.677) rotate(-90) scale(-1,1)">
			<title>Line-curve connector.20</title>
			<desc>Max address reached Address &#62; addressHigh</desc>
			<v:userDefs>
				<v:ud v:nameU="AntiScale" v:val="VT0(1):26"/>
				<v:ud v:nameU="visVersion" v:val="VT0(12):26"/>
			</v:userDefs>
			<v:textBlock v:margins="rect(4,4,4,4)" v:tabSpace="42.5197"/>
			<v:textRect cx="179.823" cy="887.244" width="93.61" height="27.2035" transform="rotate(90)"/>
			<path d="M0 841.89 L5 844.37 L9.99 846.79 L14.99 849.13 L19.98 851.41 L24.98 853.61 L29.97 855.75 L34.97 857.81 L39.97
						 859.81 L44.96 861.73 L49.96 863.59 L54.95 865.37 L59.95 867.09 L64.95 868.73 L69.94 870.31 L74.94 871.81
						 L79.93 873.25 L84.93 874.61 L89.92 875.91 L94.92 877.13 L99.92 878.29 L104.91 879.37 L109.91 880.39 L114.9
						 881.33 L119.9 882.21 L124.9 883.01 L129.89 883.75 L134.89 884.41 L139.88 885.01 L144.88 885.53 L149.87 885.99
						 L154.87 886.37 L159.87 886.69 L164.86 886.93 L169.86 887.1 L174.85 887.21 L179.85 887.24 L184.85 887.21
						 L189.84 887.1 L194.84 886.93 L199.83 886.68 L204.83 886.37 L209.82 885.98 L214.82 885.53 L219.82 885 L224.81
						 884.41 L229.81 883.74 L234.8 883 L239.8 882.2 L244.8 881.32 L249.79 880.38 L254.79 879.36 L259.78 878.28
						 L264.78 877.12 L269.77 875.9 L274.77 874.6 L279.77 873.23 L284.76 871.8 L289.76 870.29 L294.75 868.72 L299.75
						 867.07 L304.75 865.36 L309.74 863.57 L314.74 861.71 L319.73 859.79 L324.73 857.79 L329.72 855.73 L334.72
						 853.59 L339.72 851.39 L344.71 849.11 L349.71 846.76 L354.7 844.35 L355.03 844.19" class="st3"/>
			<rect v:rectContext="textBkgnd" x="-928.934" y="170.223" width="83.3791" height="19.1997" transform="rotate(-90)"
					class="st5"/>
			<text x="848.78" y="177.42" transform="rotate(-90) scale(-1,1)" class="st2" v:langID="1053"><v:paragraph
						v:horizAlign="1"/><v:tabList/>Max address reached<v:newlineChar/><tspan x="845.55" dy="1.2em" class="st10">Address </tspan>&#62; addressHigh</text>		</g>
		<g id="shape21-103" v:mID="21" v:groupContext="shape" v:layerMember="0;1" transform="translate(405.354,-322.795)">
			<title>On-page reference.21</title>
			<desc>SEND WAIT LOW</desc>
			<v:userDefs>
				<v:ud v:nameU="visVersion" v:val="VT0(12):26"/>
			</v:userDefs>
			<v:textBlock v:margins="rect(2,2,2,2)" v:tabSpace="42.5197"/>
			<v:textRect cx="41.1024" cy="800.787" width="82.21" height="82.2047"/>
			<path d="M0 800.79 A41.1024 41.1024 0 1 1 82.2 800.79 A41.1024 41.1024 0 0 1 0 800.79 Z" class="st1"/>
			<text x="8.66" y="803.19" class="st2" v:langID="1053"><v:paragraph v:horizAlign="1"/><v:tabList/>SEND WAIT LOW</text>		</g>
		<g id="shape22-106" v:mID="22" v:groupContext="shape" v:layerMember="0" transform="translate(439.37,-454.665)">
			<title>Dynamic connector.22</title>
			<v:userDefs>
				<v:ud v:nameU="visVersion" v:val="VT0(12):26"/>
			</v:userDefs>
			<path d="M7.09 841.89 L7.09 886.04" class="st6"/>
		</g>
		<g id="shape23-111" v:mID="23" v:groupContext="shape" v:layerMember="0" transform="translate(-436.535,477.992) rotate(-90)">
			<title>Line-curve connector.23</title>
			<desc>UART tx module not ready</desc>
			<v:userDefs>
				<v:ud v:nameU="AntiScale" v:val="VT0(1):26"/>
				<v:ud v:nameU="visVersion" v:val="VT0(12):26"/>
			</v:userDefs>
			<v:textBlock v:margins="rect(4,4,4,4)" v:tabSpace="42.5197"/>
			<v:textRect cx="130.157" cy="807.874" width="104.49" height="17.6036" transform="rotate(90)"/>
			<path d="M0 841.89 L4.12 839.77 L8.24 837.72 L12.36 835.74 L16.48 833.82 L20.6 831.98 L24.72 830.2 L28.84 828.49 L32.96
						 826.85 L37.07 825.27 L41.19 823.77 L45.31 822.33 L49.43 820.96 L53.55 819.66 L57.67 818.42 L61.79 817.26
						 L65.91 816.16 L70.03 815.13 L74.15 814.17 L78.27 813.28 L82.39 812.46 L86.51 811.7 L90.63 811.01 L94.75
						 810.39 L98.87 809.84 L102.99 809.36 L107.1 808.94 L111.22 808.59 L115.34 808.31 L119.46 808.1 L123.58 807.96
						 L127.7 807.89 L131.82 807.88 L135.94 807.94 L140.06 808.07 L144.18 808.27 L148.3 808.53 L152.42 808.87 L156.54
						 809.27 L160.66 809.74 L164.78 810.28 L168.9 810.89 L173.02 811.56 L177.13 812.31 L181.25 813.12 L185.37
						 814 L189.49 814.94 L193.61 815.96 L197.73 817.04 L201.85 818.19 L205.97 819.41 L210.09 820.7 L214.21 822.06
						 L218.33 823.48 L222.45 824.98 L226.57 826.54 L230.69 828.17 L234.81 829.86 L238.93 831.63 L243.04 833.46
						 L247.16 835.36 L251.28 837.33 L255.4 839.37 L255.72 839.54" class="st3"/>
			<rect v:rectContext="textBkgnd" x="760.743" y="-134.957" width="94.261" height="9.59985" transform="rotate(90)"
					class="st5"/>
			<text x="760.74" y="-127.76" transform="rotate(90)" class="st2" v:langID="1053"><v:paragraph v:horizAlign="1"/><v:tabList/>UART tx module not ready</text>		</g>
		<g id="shape24-118" v:mID="24" v:groupContext="shape" v:layerMember="0" transform="translate(-436.535,577.323) rotate(-90)">
			<title>Line-curve connector.24</title>
			<v:userDefs>
				<v:ud v:nameU="AntiScale" v:val="VT0(1):26"/>
				<v:ud v:nameU="visVersion" v:val="VT0(12):26"/>
			</v:userDefs>
			<path d="M0 841.89 L4.71 838.6 L9.43 835.38 L14.16 832.23 L18.9 829.16 L23.65 826.16 L28.41 823.23 L33.19 820.37 L37.97
						 817.58 L42.77 814.87 L47.57 812.23 L52.39 809.66 L57.22 807.17 L62.06 804.74 L66.91 802.39 L71.78 800.11
						 L76.65 797.91 L81.54 795.77 L86.43 793.71 L91.34 791.72 L96.26 789.81 L101.19 787.96 L106.13 786.19 L111.08
						 784.49 L116.04 782.86 L121.02 781.31 L126 779.82 L131 778.41 L136 777.07 L141.02 775.81 L146.05 774.61 L151.09
						 773.49 L156.14 772.44 L161.21 771.47 L166.28 770.56 L171.36 769.73 L176.46 768.97 L181.57 768.28 L186.68
						 767.67 L191.81 767.13 L196.95 766.66 L202.1 766.26 L207.27 765.93 L212.44 765.68 L217.62 765.5 L222.82 765.39
						 L228.03 765.35 L233.24 765.39 L238.47 765.5 L243.71 765.68 L248.96 765.93 L254.23 766.26 L259.5 766.66 L264.78
						 767.13 L270.08 767.67 L275.39 768.28 L280.7 768.97 L286.03 769.73 L291.37 770.56 L296.72 771.47 L302.09
						 772.44 L307.46 773.49 L312.84 774.61 L318.24 775.81 L323.64 777.07 L329.06 778.41 L334.49 779.82 L339.93
						 781.31 L345.38 782.86 L350.84 784.49 L356.32 786.19 L361.8 787.96 L367.3 789.81 L372.8 791.72 L378.32 793.71
						 L383.85 795.77 L389.39 797.91 L394.94 800.11 L400.5 802.39 L406.07 804.74 L411.66 807.17 L417.25 809.66
						 L422.86 812.23 L428.47 814.87 L434.1 817.58 L439.74 820.37 L445.39 823.23 L451.05 826.16 L456.73 829.16
						 L462.41 832.23 L468.1 835.38 L473.81 838.6 L479.53 841.89" class="st7"/>
		</g>
		<g id="shape25-123" v:mID="25" v:groupContext="shape" transform="translate(107.323,-807.874)">
			<title>Sheet.25</title>
			<desc>RECEIVING PROCESS</desc>
			<v:textBlock v:margins="rect(2,2,2,2)" v:tabSpace="42.5197"/>
			<v:textRect cx="50" cy="835.89" width="100.01" height="12"/>
			<rect x="0" y="829.89" width="100" height="12" class="st8"/>
			<text x="7.32" y="838.29" class="st11" v:langID="1053"><v:paragraph v:horizAlign="1"/><v:tabList/>RECEIVING PROCESS</text>		</g>
		<g id="shape26-126" v:mID="26" v:groupContext="shape" transform="translate(389.37,-807.874)">
			<title>Sheet.26</title>
			<desc>SENDING PROCESS</desc>
			<v:textBlock v:margins="rect(2,2,2,2)" v:tabSpace="42.5197"/>
			<v:textRect cx="50" cy="835.89" width="100.01" height="12"/>
			<rect x="0" y="829.89" width="100" height="12" class="st8"/>
			<text x="11.1" y="838.29" class="st11" v:langID="1053"><v:paragraph v:horizAlign="1"/><v:tabList/>SENDING PROCESS</text>		</g>
	</g>
</svg>
