<?xml version="1.0" encoding="UTF-8" standalone="no"?>
<!DOCTYPE svg PUBLIC "-//W3C//DTD SVG 1.0//EN" "http://www.w3.org/TR/2001/REC-SVG-20010904/DTD/svg10.dtd">
<!-- Generated by Microsoft Visio 11.0, SVG Export, v1.0 rxmachine.svg Page-1 -->
<svg xmlns="http://www.w3.org/2000/svg" xmlns:v="http://schemas.microsoft.com/visio/2003/SVGExtensions/" width="8.26772in"
		height="11.6929in" viewBox="0 0 595.276 841.89" xml:space="preserve" color-interpolation-filters="sRGB" class="st8">
	<v:documentProperties v:langID="1033" v:viewMarkup="false"/>

	<style type="text/css">
	<![CDATA[
		.st1 {fill:#ffffff;stroke:#000000;stroke-linecap:round;stroke-linejoin:round;stroke-width:0.24}
		.st2 {fill:#000000;font-family:Arial;font-size:0.666664em}
		.st3 {marker-end:url(#mrkr4-21);stroke:#000000;stroke-linecap:round;stroke-linejoin:round;stroke-width:0.239976}
		.st4 {fill:#000000;fill-opacity:1;stroke:#000000;stroke-opacity:1;stroke-width:0.086948582161584}
		.st5 {fill:#ffffff;stroke:none;stroke-linecap:butt;stroke-width:7.2}
		.st6 {fill:none;stroke:none;stroke-linecap:round;stroke-linejoin:round;stroke-width:0.72}
		.st7 {fill:#000000;font-family:Arial;font-size:0.666664em;font-weight:bold}
		.st8 {fill:none;fill-rule:evenodd;font-size:12;overflow:visible;stroke-linecap:square;stroke-miterlimit:3}
	]]>
	</style>

	<defs id="Markers">
		<g id="lend4">
			<path d="M 2 1 L -0 0 L 2 -1 L 2 1 " style="stroke:none"/>
		</g>
		<marker id="mrkr4-21" class="st4" v:arrowType="4" v:arrowSize="2" v:setback="23.0021" refX="-23.002100210021" orient="auto"
				markerUnits="strokeWidth">
			<use xlink:href="#lend4" transform="scale(-11.501050105011,-11.501050105011) "/>
		</marker>
	</defs>
	<g v:mID="0" v:index="1" v:groupContext="foregroundPage">
		<title>Page-1</title>
		<v:pageProperties v:drawingScale="0.0393701" v:pageScale="0.0393701" v:drawingUnits="24" v:shadowOffsetX="8.50394"
				v:shadowOffsetY="-8.50394"/>
		<v:layer v:name="Connector" v:index="0"/>
		<v:layer v:name="Flowchart" v:index="1"/>
		<g id="shape1-1" v:mID="1" v:groupContext="shape" v:layerMember="0;1" transform="translate(248.031,-446.457)">
			<title>On-page reference</title>
			<desc>RECEIVE</desc>
			<v:userDefs>
				<v:ud v:nameU="visVersion" v:val="VT0(12):26"/>
			</v:userDefs>
			<v:textBlock v:margins="rect(2,2,2,2)" v:tabSpace="42.5197"/>
			<v:textRect cx="35.4331" cy="806.457" width="70.87" height="70.8661"/>
			<path d="M0 806.46 A35.4331 35.4331 0 0 1 70.87 806.46 A35.4331 35.4331 0 1 1 0 806.46 Z" class="st1"/>
			<text x="17.87" y="808.86" class="st2" v:langID="1053"><v:paragraph v:horizAlign="1"/><v:tabList/>RECEIVE</text>		</g>
		<g id="shape2-4" v:mID="2" v:groupContext="shape" v:layerMember="0;1" transform="translate(248.031,-701.575)">
			<title>On-page reference.2</title>
			<desc>IDLE</desc>
			<v:userDefs>
				<v:ud v:nameU="visVersion" v:val="VT0(12):26"/>
			</v:userDefs>
			<v:textBlock v:margins="rect(2,2,2,2)" v:tabSpace="42.5197"/>
			<v:textRect cx="35.4331" cy="806.457" width="70.87" height="70.8661"/>
			<path d="M0 806.46 A35.4331 35.4331 0 0 1 70.87 806.46 A35.4331 35.4331 0 1 1 0 806.46 Z" class="st1"/>
			<text x="26.54" y="808.86" class="st2" v:langID="1053"><v:paragraph v:horizAlign="1"/><v:tabList/>IDLE</text>		</g>
		<g id="shape3-7" v:mID="3" v:groupContext="shape" v:layerMember="0;1" transform="translate(248.031,-574.016)">
			<title>On-page reference.3</title>
			<desc>START</desc>
			<v:userDefs>
				<v:ud v:nameU="visVersion" v:val="VT0(12):26"/>
			</v:userDefs>
			<v:textBlock v:margins="rect(2,2,2,2)" v:tabSpace="42.5197"/>
			<v:textRect cx="35.4331" cy="806.457" width="70.87" height="70.8661"/>
			<path d="M0 806.46 A35.4331 35.4331 0 0 1 70.87 806.46 A35.4331 35.4331 0 1 1 0 806.46 Z" class="st1"/>
			<text x="22.32" y="808.86" class="st2" v:langID="1053"><v:paragraph v:horizAlign="1"/><v:tabList/>START</text>		</g>
		<g id="shape4-10" v:mID="4" v:groupContext="shape" v:layerMember="0;1" transform="translate(248.031,-318.898)">
			<title>On-page reference.4</title>
			<desc>STOP</desc>
			<v:userDefs>
				<v:ud v:nameU="visVersion" v:val="VT0(12):26"/>
			</v:userDefs>
			<v:textBlock v:margins="rect(2,2,2,2)" v:tabSpace="42.5197"/>
			<v:textRect cx="35.4331" cy="806.457" width="70.87" height="70.8661"/>
			<path d="M0 806.46 A35.4331 35.4331 0 0 1 70.87 806.46 A35.4331 35.4331 0 1 1 0 806.46 Z" class="st1"/>
			<text x="24.54" y="808.86" class="st2" v:langID="1053"><v:paragraph v:horizAlign="1"/><v:tabList/>STOP</text>		</g>
		<g id="shape5-13" v:mID="5" v:groupContext="shape" v:layerMember="0;1" transform="translate(248.031,-191.339)">
			<title>On-page reference.5</title>
			<desc>READY</desc>
			<v:userDefs>
				<v:ud v:nameU="visVersion" v:val="VT0(12):26"/>
			</v:userDefs>
			<v:textBlock v:margins="rect(2,2,2,2)" v:tabSpace="42.5197"/>
			<v:textRect cx="35.4331" cy="806.457" width="70.87" height="70.8661"/>
			<path d="M0 806.46 A35.4331 35.4331 0 0 1 70.87 806.46 A35.4331 35.4331 0 1 1 0 806.46 Z" class="st1"/>
			<text x="21.65" y="808.86" class="st2" v:langID="1053"><v:paragraph v:horizAlign="1"/><v:tabList/>READY</text>		</g>
		<g id="shape6-16" v:mID="6" v:groupContext="shape" v:layerMember="0" transform="translate(276.378,-701.575)">
			<title>Dynamic connector</title>
			<desc>rx = ’0&#39;</desc>
			<v:textBlock v:margins="rect(4,4,4,4)" v:tabSpace="42.5197"/>
			<v:textRect cx="7.08661" cy="870.236" width="40" height="27.2035"/>
			<path d="M7.09 841.89 L7.09 893.06" class="st3"/>
			<rect v:rectContext="textBkgnd" x="-4.68106" y="860.637" width="23.5352" height="19.1997" class="st5"/>
			<text x="-4.68" y="867.84" class="st2" v:langID="1053"><v:paragraph v:horizAlign="1"/><v:tabList/>rx = ’0&#39;<v:newlineChar/></text>		</g>
		<g id="shape7-24" v:mID="7" v:groupContext="shape" v:layerMember="0" transform="translate(290.551,-574.016)">
			<title>Dynamic connector.7</title>
			<desc>rx = ’0&#39;</desc>
			<v:textBlock v:margins="rect(4,4,4,4)" v:tabSpace="42.5197"/>
			<v:textRect cx="-7.08661" cy="870.236" width="40" height="17.6036"/>
			<path d="M-7.09 841.89 L-7.09 893.06" class="st3"/>
			<rect v:rectContext="textBkgnd" x="-18.8543" y="865.436" width="23.5352" height="9.59985" class="st5"/>
			<text x="-18.85" y="872.64" class="st2" v:langID="1053"><v:paragraph v:horizAlign="1"/><v:tabList/>rx = ’0&#39;</text>		</g>
		<g id="shape8-31" v:mID="8" v:groupContext="shape" v:layerMember="0" transform="translate(276.378,-446.457)">
			<title>Dynamic connector.8</title>
			<desc>bitIndex = 7</desc>
			<v:textBlock v:margins="rect(4,4,4,4)" v:tabSpace="42.5197"/>
			<v:textRect cx="7.08661" cy="870.236" width="51.82" height="17.6036"/>
			<path d="M7.09 841.89 L7.09 893.06" class="st3"/>
			<rect v:rectContext="textBkgnd" x="-13.7061" y="865.436" width="41.5854" height="9.59985" class="st5"/>
			<text x="-13.71" y="872.64" class="st2" v:langID="1053"><v:paragraph v:horizAlign="1"/><v:tabList/>bitIndex = 7</text>		</g>
		<g id="shape9-38" v:mID="9" v:groupContext="shape" v:layerMember="0" transform="translate(276.378,-318.898)">
			<title>Dynamic connector.9</title>
			<desc>rx = ’1&#39;</desc>
			<v:textBlock v:margins="rect(4,4,4,4)" v:tabSpace="42.5197"/>
			<v:textRect cx="7.08661" cy="870.236" width="40" height="17.6036"/>
			<path d="M7.09 841.89 L7.09 893.06" class="st3"/>
			<rect v:rectContext="textBkgnd" x="-4.68106" y="865.436" width="23.5352" height="9.59985" class="st5"/>
			<text x="-4.68" y="872.64" class="st2" v:langID="1053"><v:paragraph v:horizAlign="1"/><v:tabList/>rx = ’1&#39;</text>		</g>
		<g id="shape10-45" v:mID="10" v:groupContext="shape" v:layerMember="0" transform="translate(311.811,-354.331)">
			<title>Dynamic connector.3</title>
			<desc>rx = ’0&#39;</desc>
			<v:userDefs>
				<v:ud v:nameU="visVersion" v:val="VT0(12):26"/>
			</v:userDefs>
			<v:textBlock v:margins="rect(4,4,4,4)" v:tabSpace="42.5197"/>
			<v:textRect cx="99.2126" cy="650.551" width="40" height="17.6036"/>
			<path d="M7.09 841.89 L99.21 841.89 L99.21 459.21 L12.61 459.21" class="st3"/>
			<rect v:rectContext="textBkgnd" x="87.4449" y="645.751" width="23.5352" height="9.59985" class="st5"/>
			<text x="87.44" y="652.95" class="st2" v:langID="1053"><v:paragraph v:horizAlign="1"/><v:tabList/>rx = ’0&#39;</text>		</g>
		<g id="shape11-52" v:mID="11" v:groupContext="shape" v:layerMember="0" transform="translate(318.898,-226.772)">
			<title>Dynamic connector.3.11</title>
			<desc>rx = ’0&#39;</desc>
			<v:userDefs>
				<v:ud v:nameU="visVersion" v:val="VT0(12):26"/>
			</v:userDefs>
			<v:textBlock v:margins="rect(4,4,4,4)" v:tabSpace="42.5197"/>
			<v:textRect cx="92.126" cy="824.173" width="40" height="17.6036"/>
			<path d="M0 841.89 L92.13 841.89 L92.13 719.85" class="st3"/>
			<rect v:rectContext="textBkgnd" x="80.3583" y="819.373" width="23.5352" height="9.59985" class="st5"/>
			<text x="80.36" y="826.57" class="st2" v:langID="1053"><v:paragraph v:horizAlign="1"/><v:tabList/>rx = ’0&#39;</text>		</g>
		<g id="shape13-59" v:mID="13" v:groupContext="shape" transform="translate(233.465,-461.717)">
			<title>Sheet.13</title>
			<desc>bitIndex &#60;= bitindex + 1</desc>
			<v:textBlock v:margins="rect(2,2,2,2)" v:tabSpace="42.5197"/>
			<v:textRect cx="50" cy="835.89" width="100.01" height="12"/>
			<rect x="0" y="829.89" width="100" height="12" class="st6"/>
			<text x="5.65" y="838.29" class="st7" v:langID="1053"><v:paragraph v:horizAlign="1"/><v:tabList/>bitIndex &#60;= bitindex + 1</text>		</g>
		<g id="shape16-62" v:mID="16" v:groupContext="shape" transform="translate(233.465,-710.835)">
			<title>Sheet.16</title>
			<desc>Timing speed &#60;= 76800bps</desc>
			<v:textBlock v:margins="rect(2,2,2,2)" v:tabSpace="42.5197"/>
			<v:textRect cx="56.1811" cy="835.89" width="112.37" height="12"/>
			<rect x="0" y="829.89" width="112.362" height="12" class="st6"/>
			<text x="5.27" y="838.29" class="st7" v:langID="1053"><v:paragraph v:horizAlign="1"/><v:tabList/>Timing speed &#60;= 76800bps</text>		</g>
		<g id="shape17-65" v:mID="17" v:groupContext="shape" transform="translate(227.283,-447.543)">
			<title>Sheet.17</title>
			<desc>Timing speed &#60;= 9600bps</desc>
			<v:textBlock v:margins="rect(2,2,2,2)" v:tabSpace="42.5197"/>
			<v:textRect cx="56.1811" cy="835.89" width="112.37" height="12"/>
			<rect x="0" y="829.89" width="112.362" height="12" class="st6"/>
			<text x="7.5" y="838.29" class="st7" v:langID="1053"><v:paragraph v:horizAlign="1"/><v:tabList/>Timing speed &#60;= 9600bps</text>		</g>
		<g id="shape18-68" v:mID="18" v:groupContext="shape" transform="translate(227.283,-200.598)">
			<title>Sheet.18</title>
			<desc>Timing speed &#60;= 76800bps</desc>
			<v:textBlock v:margins="rect(2,2,2,2)" v:tabSpace="42.5197"/>
			<v:textRect cx="56.1811" cy="835.89" width="112.37" height="12"/>
			<rect x="0" y="829.89" width="112.362" height="12" class="st6"/>
			<text x="5.27" y="838.29" class="st7" v:langID="1053"><v:paragraph v:horizAlign="1"/><v:tabList/>Timing speed &#60;= 76800bps</text>		</g>
		<g id="shape19-71" v:mID="19" v:groupContext="shape" transform="translate(227.283,-583.276)">
			<title>Sheet.19</title>
			<desc>Timing speed &#60;= 19200bps</desc>
			<v:textBlock v:margins="rect(2,2,2,2)" v:tabSpace="42.5197"/>
			<v:textRect cx="56.1811" cy="835.89" width="112.37" height="12"/>
			<rect x="0" y="829.89" width="112.362" height="12" class="st6"/>
			<text x="5.27" y="838.29" class="st7" v:langID="1053"><v:paragraph v:horizAlign="1"/><v:tabList/>Timing speed &#60;= 19200bps</text>		</g>
		<g id="shape20-74" v:mID="20" v:groupContext="shape" transform="translate(227.283,-328.157)">
			<title>Sheet.20</title>
			<desc>Timing speed &#60;= 9600bps</desc>
			<v:textBlock v:margins="rect(2,2,2,2)" v:tabSpace="42.5197"/>
			<v:textRect cx="56.1811" cy="835.89" width="112.37" height="12"/>
			<rect x="0" y="829.89" width="112.362" height="12" class="st6"/>
			<text x="7.5" y="838.29" class="st7" v:langID="1053"><v:paragraph v:horizAlign="1"/><v:tabList/>Timing speed &#60;= 9600bps</text>		</g>
		<g id="shape21-77" v:mID="21" v:groupContext="shape" transform="translate(85.0394,-469.89)">
			<title>Sheet.21</title>
			<desc>Shift &#60;= ’1&#39;</desc>
			<v:textBlock v:margins="rect(2,2,2,2)" v:tabSpace="42.5197"/>
			<v:textRect cx="50" cy="835.89" width="100.01" height="12"/>
			<rect x="0" y="829.89" width="100" height="12" class="st6"/>
			<text x="29.93" y="838.29" class="st7" v:langID="1053"><v:paragraph v:horizAlign="1"/><v:tabList/>Shift &#60;= ’1&#39;</text>		</g>
		<g id="shape22-80" v:mID="22" v:groupContext="shape" transform="translate(298.661,-666.142)">
			<title>Sheet.22</title>
			<desc>Sync &#60;= not Sync</desc>
			<v:textBlock v:margins="rect(2,2,2,2)" v:tabSpace="42.5197"/>
			<v:textRect cx="56.1811" cy="835.89" width="112.37" height="12"/>
			<rect x="0" y="829.89" width="112.362" height="12" class="st6"/>
			<text x="22.84" y="838.29" class="st7" v:langID="1053"><v:paragraph v:horizAlign="1"/><v:tabList/>Sync &#60;= not Sync</text>		</g>
		<g id="shape23-83" v:mID="23" v:groupContext="shape" transform="translate(298.661,-538.583)">
			<title>Sheet.23</title>
			<desc>Sync &#60;= not Sync</desc>
			<v:textBlock v:margins="rect(2,2,2,2)" v:tabSpace="42.5197"/>
			<v:textRect cx="56.1811" cy="835.89" width="112.37" height="12"/>
			<rect x="0" y="829.89" width="112.362" height="12" class="st6"/>
			<text x="22.84" y="838.29" class="st7" v:langID="1053"><v:paragraph v:horizAlign="1"/><v:tabList/>Sync &#60;= not Sync</text>		</g>
		<g id="shape24-86" v:mID="24" v:groupContext="shape" transform="translate(298.661,-419.197)">
			<title>Sheet.24</title>
			<desc>Sync &#60;= not Sync</desc>
			<v:textBlock v:margins="rect(2,2,2,2)" v:tabSpace="42.5197"/>
			<v:textRect cx="56.1811" cy="835.89" width="112.37" height="12"/>
			<rect x="0" y="829.89" width="112.362" height="12" class="st6"/>
			<text x="22.84" y="838.29" class="st7" v:langID="1053"><v:paragraph v:horizAlign="1"/><v:tabList/>Sync &#60;= not Sync</text>		</g>
		<g id="shape25-89" v:mID="25" v:groupContext="shape" transform="translate(298.661,-283.465)">
			<title>Sheet.25</title>
			<desc>Sync &#60;= not Sync</desc>
			<v:textBlock v:margins="rect(2,2,2,2)" v:tabSpace="42.5197"/>
			<v:textRect cx="56.1811" cy="835.89" width="112.37" height="12"/>
			<rect x="0" y="829.89" width="112.362" height="12" class="st6"/>
			<text x="22.84" y="838.29" class="st7" v:langID="1053"><v:paragraph v:horizAlign="1"/><v:tabList/>Sync &#60;= not Sync</text>		</g>
		<g id="shape12-92" v:mID="12" v:groupContext="shape" v:layerMember="0" transform="translate(276.378,-446.457)">
			<title>Dynamic connector.3.12</title>
			<desc>bitIndex &#60; 7</desc>
			<v:userDefs>
				<v:ud v:nameU="visVersion" v:val="VT0(12):26"/>
			</v:userDefs>
			<v:textBlock v:margins="rect(4,4,4,4)" v:tabSpace="42.5197"/>
			<v:textRect cx="-140.315" cy="800.87" width="51.82" height="17.6036"/>
			<path d="M7.09 841.89 L7.09 849.8 L-140.31 849.8 L-140.31 757.52 L7.09 757.52 L7.09 765.5" class="st3"/>
			<rect v:rectContext="textBkgnd" x="-161.108" y="796.07" width="41.5854" height="9.59985" class="st5"/>
			<text x="-161.11" y="803.27" class="st2" v:langID="1053"><v:paragraph v:horizAlign="1"/><v:tabList/>bitIndex &#60; 7</text>		</g>
	</g>
</svg>
